# AST/ASF file generated using VICON BodyLanguage
# -----------------------------------------------
:version 1.10
:name VICON
:units
  mass 1.0
  length 0.45
  angle deg
:documentation
   .ast/.asf automatically generated from VICON data using
   VICON BodyBuilder and BodyLanguage model FoxedUp or BRILLIANT.MOD
:root
   order TX TY TZ RX RY RZ
   axis XYZ
   position 0 0 0  
   orientation 0 0 0 
:bonedata
  begin
     id 1 
     name lhipjoint
     direction 0.589753 -0.68606 0.426044 
     length 2.54082 
     axis 0 0 0  XYZ
  end
  begin
     id 2 
     name lfemur
     direction 0.34202 -0.939693 0  
     length 7.04539  
     axis 0 0 20  XYZ
    dof rx ry rz
    limits (-160.0 20.0)
           (-70.0 70.0)
           (-60.0 70.0)
  end
  begin
     id 3 
     name ltibia
     direction 0.34202 -0.939693 0   
     length 7.83772   
     axis 0 0 20   XYZ
    dof rx
    limits (-10.0 170.0)
  end
  begin
     id 4 
     name lfoot
     direction 0.0596604 -0.163915 0.984669   
     length 2.39542   
     axis -90 7.62852e-016 20   XYZ
    dof rx rz
    limits (-45.0 90.0)
           (-70.0 20.0)
  end
  begin
     id 5 
     name ltoes
     direction 1.53514e-011 -4.21954e-011 1   
     length 1.2047   
     axis -90 7.62852e-016 20   XYZ
    dof rx
    limits (-90.0 20.0)
  end
  begin
     id 6 
     name rhipjoint
     direction -0.580585 -0.69168 0.429534   
     length 2.52018  
     axis 0 0 0  XYZ 
  end
  begin
     id 7 
     name rfemur
     direction -0.34202 -0.939693 0   
     length 7.0101   
     axis 0 0 -20   XYZ
    dof rx ry rz
    limits (-160.0 20.0)
           (-70.0 70.0)
           (-70.0 60.0)
  end
  begin
     id 8 
     name rtibia
     direction -0.34202 -0.939693 0   
     length 7.70628   
     axis 0 0 -20   XYZ
    dof rx
    limits (-10.0 170.0)
 end
 begin
     id 9 
     name rfoot
     direction -0.0696237 -0.19129 0.979061   
     length 2.52466  
     axis -90 -7.62852e-016 -20   XYZ
    dof rx rz
    limits (-45.0 90.0)
           (-20.0 70.0)
  end
  begin
     id 10 
     name rtoes
     direction -1.53519e-011 -4.21793e-011 1   
     length 1.266   
     axis -90 -7.62852e-016 -20   XYZ
    dof rx
    limits (-90.0 20.0)
  end
  begin
     id 11 
     name lowerback
     direction 0.00381965 0.995707 -0.0924856   
     length 2.20825   
     axis 0 0 0   XYZ
    dof rx ry rz
    limits (-20.0 45.0)
           (-30.0 30.0)
           (-30.0 30.0)
  end
  begin
     id 12 
     name upperback
     direction -0.0139043 0.999634 -0.0231929   
     length 2.21517   
     axis 0 0 0   XYZ
    dof rx ry rz
    limits (-20.0 45.0)
           (-30.0 30.0)
           (-30.0 30.0)
  end
  begin
     id 13 
     name thorax
     direction -0.0143933 0.999691 0.0202892   
     length 2.22911   
     axis 0 0 0   XYZ
    dof rx ry rz
    limits (-20.0 45.0)
           (-30.0 30.0)
           (-30.0 30.0)
  end
  begin
     id 14 
     name lowerneck
     direction -0.0251153 0.981819 0.188153   
     length 1.61782   
     axis 0 0 0   XYZ
    dof rx ry rz
    limits (-20.0 45.0)
           (-30.0 30.0)
           (-30.0 30.0)
  end
  begin
     id 15 
     name upperneck
     direction 0.0563891 0.969357 -0.239095   
     length 1.64526   
     axis 0 0 0   XYZ
    dof rx ry rz
    limits (-20.0 45.0)
           (-30.0 30.0)
           (-30.0 30.0)
  end
  begin
     id 16
     name head
     direction 0.0208328 0.99459 -0.101773  
     length 1.67436  
     axis 0 0 0   XYZ
    dof rx ry rz
    limits (-20.0 45.0)
           (-30.0 30.0)
           (-30.0 30.0)
  end
  begin
     id 17 
     name lclavicle
     direction 0.917689 0.397224 0.00772059  
     length 3.31102  
     axis 0 0 0   XYZ
    dof ry rz
    limits (-20.0 10.0)
           (0.0 20.0)
  end
  begin
     id 18 
     name lhumerus
     direction 1 -4.4896e-011 2.32308e-027   
     length 5.25537   
     axis 180 -30 -90   XYZ
    dof rx ry rz
    limits (-60.0 90.0)
           (-90.0 90.0)
           (-90.0 90.0)
  end
  begin
     id 19
     name lradius
     direction 1 -4.49005e-011 -2.04271e-027   
     length 3.38855   
     axis 180 -30 -90   XYZ
    dof rx
    limits (-10.0 170.0)
  end
  begin
     id 20
     name lwrist
     direction 1 -4.48892e-011 2.56952e-028   
     length 1.69428   
     axis -5.12785e-016 90 90   XYZ
    dof ry
    limits (-180.0 0.0)
 end
  begin
     id 21 
     name lhand
     direction 1 -4.48966e-011 5.13905e-028   
     length 0.614516   
     axis -3.27915e-016 90 90   XYZ
    dof rx rz
    limits (-90.0 90.0)
           (-45.0 45.0)
  end
  begin
     id 22 
     name lfingers
     direction 1 -4.48979e-011 1.02781e-027   
     length 0.495439   
     axis -6.5583e-016 90 90   XYZ
    dof rx
    limits (0.0 90.0)
  end
  begin
     id 23
     name lthumb
     direction 0.707107 -6.35001e-011 0.707107   
     length 0.711354   
     axis -90 45 2.85299e-015   XYZ
    dof rx rz
    limits (-45.0 45.0)
           (-45.0 45.0)
  end
  begin
     id 24 
     name rclavicle
     direction -0.938556 0.342765 -0.0403177   
     length 3.27019  
     axis 0 0 0   XYZ 
    dof ry rz
    limits (-10.0 20.0)
           (-20.0 0.0)
  end
  begin
     id 25 
     name rhumerus
     direction -1 -4.48966e-011 2.52291e-027  
     length 5.38183   
     axis 180 30 90   XYZ
    dof rx ry rz
    limits (-90.0 60.0)
           (-90.0 90.0)
           (-90.0 90.0)
  end
  begin
     id 26 
     name rradius
     direction -1 -4.4896e-011 1.5797e-027   
     length 3.16988   
     axis 180 30 90   XYZ
    dof rx
    limits (-10.0 170.0)
  end
  begin
     id 27 
     name rwrist
     direction -1 -4.48947e-011 2.56952e-028   
     length 1.58494   
     axis -5.12785e-016 -90 -90   XYZ
    dof ry
    limits (-180.0 0.0)
  end
  begin
     id 28
     name rhand
     direction -1 -4.49098e-011 5.13905e-028   
     length 0.637679   
     axis -3.27915e-016 -90 -90   XYZ
    dof rx rz
    limits (-90.0 90.0)
           (-45.0 45.0)
  end
  begin
     id 29
     name rfingers
     direction -1 -4.49026e-011 1.02781e-027   
     length 0.514113   
     axis -6.5583e-016 -90 -90   XYZ
    dof rx
    limits (0.0 90.0)
  end
  begin
     id 30
     name rthumb
     direction -0.707107 -6.3491e-011 0.707107   
     length 0.738167   
     axis -90 -45 -2.85299e-015   XYZ
    dof rx rz
    limits (-45.0 45.0)
           (-45.0 45.0)
  end
:hierarchy
  begin
    root lhipjoint rhipjoint lowerback
    lhipjoint lfemur
    lfemur ltibia
    ltibia lfoot
    lfoot ltoes
    rhipjoint rfemur
    rfemur rtibia
    rtibia rfoot
    rfoot rtoes
    lowerback upperback
    upperback thorax
    thorax lowerneck lclavicle rclavicle
    lowerneck upperneck
    upperneck head
    lclavicle lhumerus
    lhumerus lradius
    lradius lwrist
    lwrist lhand lthumb
    lhand lfingers
    rclavicle rhumerus
    rhumerus rradius
    rradius rwrist
    rwrist rhand rthumb
    rhand rfingers
  end

#!OML:ASF H:\Swim\Project 1\Capture day 1\Session 1\swimmer.ASF
:FULLY-SPECIFIED
:DEGREES
2528
root 5.83083 10.4671 15.7149 84.7242 0.26738 -0.649333
lowerback 3.8729 -0.635765 0.191642
upperback -7.89637 -1.00127 -1.46577
thorax -10.6107 -0.583678 -1.54477
lowerneck -20.1597 -6.29641 -10.7904
upperneck 20.7738 -8.88174 13.9634
head 11.2443 -3.2811 5.51648
rclavicle -6.36111e-015 -8.74653e-015
rhumerus 74.676 -9.66569 -22.1663
rradius 30.9187
rwrist -54.9092
rhand -21.9003 -23.1231
rfingers 7.12502
rthumb 4.505 -53.0552
lclavicle -6.36111e-015 -8.74653e-015
lhumerus 82.0223 7.97424 21.5652
lradius 31.8502
lwrist 31.3071
lhand -15.3234 -325.6
lfingers 7.12502
lthumb 10.8528 424.1
rfemur -4.06406 0.00582872 -8.36554
rtibia 100.956
rfoot -1.35509 -9.88244
rtoes -3.42603
lfemur -5.29127 -4.79613 0.8714
ltibia 91.9334
lfoot 0.0542413 12.5469
ltoes 13.9793
2529
root 5.83598 10.4464 15.7503 85.6554 0.250275 -0.664226
lowerback 3.31394 -0.477195 0.135018
upperback -7.61549 -0.785065 -1.55034
thorax -9.95226 -0.471666 -1.63251
lowerneck -19.1006 -6.40255 -10.7419
upperneck 19.7031 -9.03842 14.0659
head 10.6751 -3.39603 5.48975
rclavicle -2.38542e-015 6.36111e-015
rhumerus 72.3352 -10.9099 -15.4456
rradius 30.8249
rwrist -57.3572
rhand -21.8217 -24.0712
rfingers 7.12502
rthumb 4.58096 -54.0017
lclavicle -2.38542e-015 6.36111e-015
lhumerus 82.7229 9.39872 19.729
lradius 29.8811
lwrist 28.331
lhand -13.9842 -325.525
lfingers 7.12502
lthumb 12.1443 424.103
rfemur -4.67303 0.190857 -7.50015
rtibia 98.1086
rfoot -1.13248 -11.4318
rtoes -2.19644
lfemur -5.74827 -4.96878 0.431487
ltibia 88.6301
lfoot -0.0564482 13.249
ltoes 14.9609
2530
root 5.84006 10.4269 15.7853 86.5775 0.242806 -0.676969
lowerback 2.75116 -0.306408 0.0110436
upperback -7.34222 -0.553299 -1.60142
thorax -9.30378 -0.344793 -1.64345
lowerneck -18.0072 -6.52683 -10.6796
upperneck 18.6301 -9.2187 14.1548
head 10.1122 -3.52743 5.45874
rclavicle -5.96354e-015 -1.58034e-014
rhumerus 71.7672 -12.0442 -12.4682
rradius 28.4334
rwrist -56.3006
rhand -20.7972 -24.0698
rfingers 7.12502
rthumb 5.57013 -53.9766
lclavicle -5.96354e-015 -1.58034e-014
lhumerus 83.2828 10.7558 18.3552
lradius 28.1555
lwrist 24.8295
lhand -12.6244 -325.554
lfingers 7.12502
lthumb 13.4552 423.991
rfemur -5.25666 0.393085 -6.71379
rtibia 95.2161
rfoot -1.05743 -12.8578
rtoes -0.857948
lfemur -6.18902 -5.1221 0.0758622
ltibia 85.2581
lfoot -0.0619959 14.0119
ltoes 16.049
2531
root 5.84291 10.408 15.8197 87.4957 0.246792 -0.693116
lowerback 2.20037 -0.147721 -0.147923
upperback -7.09113 -0.336928 -1.62145
thorax -8.69267 -0.222308 -1.5955
lowerneck -16.9718 -6.65744 -10.6246
upperneck 17.632 -9.40487 14.2442
head 9.59821 -3.6619 5.43666
rclavicle 1.98785e-015 4.72114e-015
rhumerus 70.937 -13.0329 -9.82541
rradius 26.6258
rwrist -55.1052
rhand -20.0508 -24.0231
rfingers 7.12502
rthumb 6.29078 -53.9097
lclavicle 1.98785e-015 4.72114e-015
lhumerus 83.6849 12.0357 17.4122
lradius 26.67
lwrist 20.9905
lhand -11.3583 -325.643
lfingers 7.12502
lthumb 14.6753 423.817
rfemur -5.82088 0.619246 -5.99587
rtibia 92.2753
rfoot -1.09116 -14.1171
rtoes 0.470519
lfemur -6.61324 -5.25554 -0.197766
ltibia 81.8157
lfoot 0.0702471 14.8752
ltoes 17.2326
2532
root 5.84469 10.3895 15.8536 88.414 0.265871 -0.71873
lowerback 1.66263 -0.00625899 -0.316138
upperback -6.86588 -0.141919 -1.62083
thorax -8.12354 -0.110066 -1.51479
lowerneck -16.0179 -6.78873 -10.5975
upperneck 16.7094 -9.59276 14.3787
head 9.13797 -3.79314 5.44206
rclavicle 3.77691e-015 8.44835e-016
rhumerus 69.8867 -13.9014 -7.49685
rradius 25.3943
rwrist -53.8504
rhand -19.5293 -23.9931
rfingers 7.12502
rthumb 6.79423 -53.864
lclavicle 3.77691e-015 8.44835e-016
lhumerus 83.8893 13.2576 16.6788
lradius 25.4732
lwrist 17.2846
lhand -10.3432 -325.722
lfingers 7.12502
lthumb 15.6531 423.665
rfemur -6.37388 0.881985 -5.33313
rtibia 89.2822
rfoot -1.14352 -15.2053
rtoes 1.62204
lfemur -7.01782 -5.37528 -0.391828
ltibia 78.3032
lfoot 0.362528 15.8411
ltoes 18.375
2533
root 5.8451 10.3715 15.8868 89.318 0.293345 -0.761632
lowerback 1.16044 0.0981117 -0.471633
upperback -6.6668 0.00489286 -1.60279
thorax -7.60955 -0.0233939 -1.41618
lowerneck -15.145 -6.89838 -10.6072
upperneck 15.8221 -9.74051 14.532
head 8.70854 -3.90519 5.47049
rclavicle 1.98785e-015 -4.77083e-015
rhumerus 68.7416 -14.6505 -5.5661
rradius 24.6832
rwrist -52.5322
rhand -19.161 -23.9757
rfingers 7.12502
rthumb 7.14973 -53.8349
lclavicle 1.98785e-015 -4.77083e-015
lhumerus 84.1778 14.3776 16.5689
lradius 24.1797
lwrist 13.4636
lhand -9.5758 -325.933
lfingers 7.12502
lthumb 16.3921 423.394
rfemur -6.9057 1.20244 -4.72193
rtibia 86.2317
rfoot -1.10895 -16.1157
rtoes 2.50425
lfemur -7.37959 -5.49341 -0.522034
ltibia 74.7194
lfoot 0.799583 16.8564
ltoes 19.4646
2534
root 5.84491 10.3527 15.9193 90.2606 0.31223 -0.823327
lowerback 0.624936 0.163982 -0.603496
upperback -6.49065 0.101656 -1.58476
thorax -7.10577 0.0356417 -1.32516
lowerneck -14.392 -6.98552 -10.7065
upperneck 14.9943 -9.853 14.7875
head 8.33222 -3.99341 5.55752
rclavicle 2.78299e-015 6.95746e-015
rhumerus 67.5434 -15.3108 -3.94643
rradius 24.3881
rwrist -51.2374
rhand -18.9022 -23.9008
rfingers 7.12502
rthumb 7.39956 -53.7514
lclavicle 2.78299e-015 6.95746e-015
lhumerus 84.0573 15.5741 16.0103
lradius 23.2464
lwrist 10.6414
lhand -9.18495 -326.034
lfingers 7.12502
lthumb 16.7684 423.262
rfemur -7.46916 1.56066 -4.18848
rtibia 83.1329
rfoot -0.924322 -16.8843
rtoes 3.11866
lfemur -7.75236 -5.60381 -0.611346
ltibia 71.0778
lfoot 1.3589 17.8094
ltoes 20.5385
2535
root 5.84458 10.3335 15.9503 91.2403 0.305288 -0.897184
lowerback 0.0533756 0.181059 -0.702703
upperback -6.3299 0.133807 -1.57902
thorax -6.60191 0.0589175 -1.25999
lowerneck -13.7508 -7.03704 -10.8604
upperneck 14.182 -9.90403 15.079
head 7.98209 -4.05003 5.67485
rclavicle -1.19271e-015 1.39149e-015
rhumerus 66.3728 -15.8726 -2.60761
rradius 24.3673
rwrist -49.9836
rhand -18.7081 -23.7107
rfingers 7.12502
rthumb 7.58688 -53.5547
lclavicle -1.19271e-015 1.39149e-015
lhumerus 83.431 16.8205 14.8916
lradius 22.6702
lwrist 8.8678
lhand -9.09494 -326.016
lfingers 7.12502
lthumb 16.855 423.273
rfemur -8.06576 1.94615 -3.75597
rtibia 79.9978
rfoot -0.590971 -17.5717
rtoes 3.40275
lfemur -8.14402 -5.72787 -0.68656
ltibia 67.3983
lfoot 1.98482 18.5871
ltoes 21.7012
2536
root 5.84458 10.3143 15.9792 92.2456 0.278859 -0.976709
lowerback -0.543862 0.155854 -0.753438
upperback -6.17754 0.109972 -1.59334
thorax -6.09572 0.0499335 -1.2398
lowerneck -13.228 -7.05899 -11.061
upperneck 13.4004 -9.90505 15.4042
head 7.66427 -4.07884 5.81768
rclavicle -3.37934e-015 2.02263e-014
rhumerus 65.2235 -16.3129 -1.39051
rradius 24.4782
rwrist -48.8379
rhand -18.562 -23.3824
rfingers 7.12502
rthumb 7.72795 -53.2212
lclavicle -3.37934e-015 2.02263e-014
lhumerus 82.2839 18.0679 13.2062
lradius 22.4125
lwrist 8.01065
lhand -9.18149 -325.921
lfingers 7.12502
lthumb 16.7717 423.374
rfemur -8.689 2.35114 -3.41509
rtibia 76.8454
rfoot -0.158573 -18.1982
rtoes 3.63686
lfemur -8.55884 -5.88112 -0.741513
ltibia 63.7084
lfoot 2.59262 19.1695
ltoes 22.5912
2537
root 5.84543 10.2953 16.0051 93.2744 0.244279 -1.04476
lowerback -1.16431 0.0943847 -0.745233
upperback -6.04005 0.03776 -1.62792
thorax -5.59524 0.0124154 -1.27266
lowerneck -12.8053 -7.0539 -11.2749
upperneck 12.6659 -9.86236 15.7226
head 7.37632 -4.08381 5.96533
rclavicle 2.28602e-015 -3.37934e-015
rhumerus 64.1093 -16.5892 -0.193531
rradius 24.5758
rwrist -47.8065
rhand -18.4457 -22.9468
rfingers 7.12502
rthumb 7.84013 -52.7814
lclavicle 2.28602e-015 -3.37934e-015
lhumerus 80.6819 19.1981 11.181
lradius 22.4194
lwrist 7.65085
lhand -9.30653 -325.821
lfingers 7.12502
lthumb 16.6514 423.485
rfemur -9.33352 2.75082 -3.15275
rtibia 73.69
rfoot 0.271058 -18.8359
rtoes 3.7772
lfemur -9.01683 -6.08373 -0.761696
ltibia 60.0363
lfoot 3.1495 19.4989
ltoes 23.2117
2538
root 5.84698 10.277 16.0279 94.2827 0.210248 -1.09391
lowerback -1.76646 0.00786961 -0.680784
upperback -5.9075 -0.0689593 -1.67896
thorax -5.11357 -0.0458495 -1.35502
lowerneck -12.4801 -7.03152 -11.4922
upperneck 12.0013 -9.79272 16.0266
head 7.12551 -4.07187 6.11145
rclavicle 0 1.21259e-014
rhumerus 63.0305 -16.6798 1.03914
rradius 24.5636
rwrist -46.8401
rhand -18.3213 -22.4537
rfingers 7.12502
rthumb 7.96024 -52.2838
lclavicle 0 1.21259e-014
lhumerus 78.7349 20.1318 9.04227
lradius 22.6224
lwrist 7.38711
lhand -9.37018 -325.781
lfingers 7.12502
lthumb 16.5901 423.53
rfemur -9.95764 3.14642 -2.94993
rtibia 70.5446
rfoot 0.624718 -19.4986
rtoes 3.9188
lfemur -9.48298 -6.35896 -0.736714
ltibia 56.4057
lfoot 3.59003 19.6032
ltoes 23.5317
